# xmcd
#
# Track frame offsets: 
#        150
#        13112
#        25330
#        40042
#        53212
#        64320
#        75315
#        88682
#        102877
#        120162
#        133762
#        144512
#        158115
#        171620
#        187767
#        198427
#        214082
#        226810
#        237020
#        247609
#        262222
#        276377
#        286950
#        305937
#
# Disc length: 4363 seconds
#
# Revision: 1
# Processed by: cddbd v1.5.2PL0 Copyright (c) Steve Scherf et al.
# Submitted via: ExactAudioCopyFreeDBPlugin 1.0
#
DISCID=50110918
DTITLE=Diana Ross and The Supremes - Diana Ross and The Supremes:  Antholo
DTITLE=gy
DYEAR=2001
DGENRE=Soul
TTITLE0=Reflections
TTITLE1=In and Out of Love
TTITLE2=Forever Came Today
TTITLE3=The Nitty Gritty
TTITLE4=Sweet Thing
TTITLE5=Some Things You Never Get Used To
TTITLE6=Love Child
TTITLE7=I'm Gonna Make You Love Me (with The Temptations)
TTITLE8=Try it Baby (with The Temptations)
TTITLE9=I'm Living in Shame
TTITLE10=I'll Try Somthing New (with The Temptations)
TTITLE11=The Composer
TTITLE12=No Matter What Sign You Are
TTITLE13=Someday We'll Be Together
TTITLE14=A Hard Day's Night
TTITLE15=It Makes No Difference Now
TTITLE16=Ain't That Good News
TTITLE17=Bewitched, Bothered and Bewildered
TTITLE18=Whistle While You Work
TTITLE19=If a Girl Isn't Pretty
TTITLE20=Where Do I Go - Good Morning Starshine
TTITLE21=Can't Take My Eyes Off You
TTITLE22=Rhythm of Life (with The Temptations)
TTITLE23=The Impossible Dream
EXTD=
EXTT0=
EXTT1=
EXTT2=
EXTT3=
EXTT4=
EXTT5=
EXTT6=
EXTT7=
EXTT8=
EXTT9=
EXTT10=
EXTT11=
EXTT12=
EXTT13=
EXTT14=
EXTT15=
EXTT16=
EXTT17=
EXTT18=
EXTT19=
EXTT20=
EXTT21=
EXTT22=
EXTT23=
PLAYORDER=
